<svg class="animated" id="freepik_stories-alone" xmlns="http://www.w3.org/2000/svg" viewBox="0 0 500 500" version="1.1" xmlns:xlink="http://www.w3.org/1999/xlink" xmlns:svgjs="http://svgjs.com/svgjs"><style>svg#freepik_stories-alone:not(.animated) .animable {opacity: 0;}svg#freepik_stories-alone.animated #freepik--Mountains--inject-68 {animation: 1s 1 forwards cubic-bezier(.36,-0.01,.5,1.38) lightSpeedLeft;animation-delay: 0s;}svg#freepik_stories-alone.animated #freepik--Floor--inject-68 {animation: 1s 1 forwards cubic-bezier(.36,-0.01,.5,1.38) slideLeft;animation-delay: 0s;}svg#freepik_stories-alone.animated #freepik--Trees--inject-68 {animation: 1s 1 forwards cubic-bezier(.36,-0.01,.5,1.38) zoomOut;animation-delay: 0s;}svg#freepik_stories-alone.animated #freepik--Shadow--inject-68 {animation: 1s 1 forwards cubic-bezier(.36,-0.01,.5,1.38) fadeIn;animation-delay: 0s;}svg#freepik_stories-alone.animated #freepik--Rocks--inject-68 {animation: 1s 1 forwards cubic-bezier(.36,-0.01,.5,1.38) slideUp;animation-delay: 0s;}svg#freepik_stories-alone.animated #freepik--Sun--inject-68 {animation: 1s 1 forwards cubic-bezier(.36,-0.01,.5,1.38) fadeIn;animation-delay: 0s;}svg#freepik_stories-alone.animated #freepik--Clouds--inject-68 {animation: 1s 1 forwards cubic-bezier(.36,-0.01,.5,1.38) slideUp;animation-delay: 0s;}svg#freepik_stories-alone.animated #freepik--Birds--inject-68 {animation: 1s 1 forwards cubic-bezier(.36,-0.01,.5,1.38) slideDown;animation-delay: 0s;}svg#freepik_stories-alone.animated #freepik--Character--inject-68 {animation: 1s 1 forwards cubic-bezier(.36,-0.01,.5,1.38) slideUp;animation-delay: 0s;}            @keyframes lightSpeedLeft {              from {                transform: translate3d(-50%, 0, 0) skewX(20deg);                opacity: 0;              }              60% {                transform: skewX(-10deg);                opacity: 1;              }              80% {                transform: skewX(2deg);              }              to {                opacity: 1;                transform: translate3d(0, 0, 0);              }            }                    @keyframes slideLeft {                0% {                    opacity: 0;                    transform: translateX(-30px);                }                100% {                    opacity: 1;                    transform: translateX(0);                }            }                    @keyframes zoomOut {                0% {                    opacity: 0;                    transform: scale(1.5);                }                100% {                    opacity: 1;                    transform: scale(1);                }            }                    @keyframes fadeIn {                0% {                    opacity: 0;                }                100% {                    opacity: 1;                }            }                    @keyframes slideUp {                0% {                    opacity: 0;                    transform: translateY(30px);                }                100% {                    opacity: 1;                    transform: inherit;                }            }                    @keyframes slideDown {                0% {                    opacity: 0;                    transform: translateY(-30px);                }                100% {                    opacity: 1;                    transform: translateY(0);                }            }        </style><g id="freepik--Mountains--inject-68" class="animable" style="transform-origin: 250.715px 175.995px;"><g id="freepik--mountains--inject-68" class="animable" style="transform-origin: 250.715px 175.995px;"><path d="M442.47,239.91,379.89,134a3,3,0,0,0-5.22,0l-29.28,49.49-18.28-23.42a3,3,0,0,0-4.84.08L275,224.81l.08-.28L185.84,102.34a3.34,3.34,0,0,0-5.33-.08L160.4,128,128.18,73.56a3.34,3.34,0,0,0-5.75,0L58.84,181.21v98.86H442.59Z" style="fill: rgb(146, 227, 169); transform-origin: 250.715px 175.995px;" id="elnjppjy0n22h" class="animable"></path><g id="elke37udc4a4"><path d="M442.47,239.91,379.89,134a3,3,0,0,0-5.22,0l-29.28,49.49-18.28-23.42a3,3,0,0,0-4.84.08L275,224.81l.08-.28L185.84,102.34a3.34,3.34,0,0,0-5.33-.08L160.4,128,128.18,73.56a3.34,3.34,0,0,0-5.75,0L58.84,181.21v98.86H442.59Z" style="fill: rgb(255, 255, 255); opacity: 0.75; transform-origin: 250.715px 175.995px;" class="animable"></path></g><g id="elholmzw8fk78"><path d="M106.29,115.71a3.94,3.94,0,0,0,5.49-.19l9.4-9.77a3.93,3.93,0,0,1,5.77.11l2.14,2.4a3.94,3.94,0,0,0,5.75.13,3.94,3.94,0,0,1,6.08.56l1.36,2a3.94,3.94,0,0,0,7.11-1.33l0-.16L128.18,73.56a3.34,3.34,0,0,0-5.75,0l-21.84,37Z" style="fill: rgb(255, 255, 255); opacity: 0.7; transform-origin: 124.99px 94.3259px;" class="animable"></path></g><g id="elkhq6gd087rh"><path d="M168,119.46l5.35-2.19a2.54,2.54,0,0,1,3.14,1l1,1.55a2.54,2.54,0,0,0,3.91.54l1.13-1a2.54,2.54,0,0,1,3.92.56l1.86,3.11a2.55,2.55,0,0,0,4.55-.35l.7-1.72a2.54,2.54,0,0,1,3.38-1.38,2.5,2.5,0,0,0,1.6.15l-12.68-17.37a3.34,3.34,0,0,0-5.33-.08l-13.57,17.39A2.6,2.6,0,0,0,168,119.46Z" style="fill: rgb(255, 255, 255); opacity: 0.7; transform-origin: 182.75px 112.631px;" class="animable"></path></g><g id="eldjdd43ocoje"><path d="M394.56,172.28a3.58,3.58,0,0,1-5-.17L381,163.23a3.58,3.58,0,0,0-5.25.1l-1.94,2.18a3.59,3.59,0,0,1-5.23.12,3.57,3.57,0,0,0-5.52.5L361.85,168a3.57,3.57,0,0,1-6.45-1.21l0-.14L374.67,134a3,3,0,0,1,5.22,0l19.85,33.6Z" style="fill: rgb(255, 255, 255); opacity: 0.7; transform-origin: 377.57px 152.847px;" class="animable"></path></g><g id="el6acu1lu7wpe"><path d="M338.46,175.69l-4.86-2a2.31,2.31,0,0,0-2.85.94l-.87,1.41a2.32,2.32,0,0,1-3.56.49l-1-1a2.33,2.33,0,0,0-3.57.51L320,178.91a2.31,2.31,0,0,1-4.13-.32l-.64-1.56a2.3,2.3,0,0,0-3.07-1.25,2.33,2.33,0,0,1-1.46.13l11.53-15.78a3,3,0,0,1,4.84-.08l12.34,15.81A2.46,2.46,0,0,1,338.46,175.69Z" style="fill: rgb(255, 255, 255); opacity: 0.7; transform-origin: 325.055px 169.451px;" class="animable"></path></g><g id="el8glujgrjjkc"><polygon points="166.75 128.03 180.51 102.26 160.4 128.03 176.65 151.86 166.75 128.03" style="opacity: 0.1; transform-origin: 170.455px 127.06px;" class="animable"></polygon></g><g id="elr8qmxso03re"><polygon points="339.62 183.47 327.11 160.06 345.39 183.47 330.62 205.13 339.62 183.47" style="opacity: 0.1; transform-origin: 336.25px 182.595px;" class="animable"></polygon></g></g></g><g id="freepik--Floor--inject-68" class="animable" style="transform-origin: 250px 352.68px;"><g id="freepik--Land--inject-68" class="animable" style="transform-origin: 250px 352.68px;"><ellipse cx="250" cy="352.68" rx="231.33" ry="133.56" style="fill: rgb(146, 227, 169); transform-origin: 250px 352.68px;" id="eldnqzxdqnbqf" class="animable"></ellipse><g id="el799dt1ti54f"><ellipse cx="250" cy="352.68" rx="231.33" ry="133.56" style="fill: rgb(255, 255, 255); opacity: 0.3; transform-origin: 250px 352.68px;" class="animable"></ellipse></g></g></g><g id="freepik--Trees--inject-68" class="animable" style="transform-origin: 250.835px 184.094px;"><g id="freepik--Tree--inject-68" class="animable" style="transform-origin: 385.869px 185.831px;"><g id="freepik--tree--inject-68" class="animable" style="transform-origin: 385.869px 183.313px;"><path d="M392.85,195.73a6.47,6.47,0,0,0-3.52.64,35.65,35.65,0,0,0-5.75,4.07,11.59,11.59,0,0,1-6.37,2.75c-2.35.08-4.89-1.38-5.31-3.7a3.27,3.27,0,0,0-.31-1.17,1.7,1.7,0,0,0-2-.52,10.73,10.73,0,0,0-1.94,1.12c-2.38,1.4-5.36,1.08-8.09.68-2.27-.33-5.14-1.33-5.13-3.63,0-1.5,1.31-2.6,2.34-3.69s1.87-2.84.93-4a2.86,2.86,0,0,0-1.32-.81c-2.84-.92-6.32.31-8.72-1.47a5,5,0,0,1-1.26-6,7.61,7.61,0,0,1,5.12-3.9c1.91-.49,4.33-.71,5-2.55.63-1.61-.62-3.35-2-4.34s-3.11-1.68-4.1-3.1a4.9,4.9,0,0,1-.13-5.09,6.21,6.21,0,0,1,4.28-2.94,9.51,9.51,0,0,0,2.6-.57,1.74,1.74,0,0,0,1-2.19c-.26-.47-.8-.71-1.11-1.15a2.07,2.07,0,0,1,.77-2.7,10.26,10.26,0,0,1,2.9-1.11c2.06-.69,4.06-2.69,3.45-4.77s-3.6-2.88-4.48-5c-.78-1.85.46-4,2.11-5.12s3.67-1.59,5.48-2.44,3.56-2.37,3.7-4.37-1.38-3.76-2.63-5.39-2.31-3.9-1.22-5.63,3.38-1.77,5.26-2.37a8.5,8.5,0,0,0,5.18-4.67c.5-1.15.74-2.42,1.34-3.52,1.86-3.45,6.55-5,10.18-4.53,1.9.22,2.53,1,3.45,2.35a5.46,5.46,0,0,1,1.27,2.38c.27,1.66-.6,3.78,1,5,2.39,1.93,6-.67,5.91,3.64a18.06,18.06,0,0,1-.81,5.37c-.65,1.82-1.95,2.6-.86,4.63,1.4,2.63,2.31,2.61,5.12,2.61,2,0,3.72-.11,5.21,1.43,2.62,2.7,1.06,5.16-1.26,7.24-2.64,2.38-1.24,3.42-.9,6.49.17,1.48-.17,1.94,1.15,2.92,2.51,1.86,3.9,1.23,3.2,4.87-.64,3.32.35,2.18,3.23,3.42,2.55,1.1,4.24,3.85,6.3,5.56,1.33,1.1,3.36,2,3.48,3.89.24,3.71-4.36,2.9-6.55,3.78-3.58,1.45-2.51,6.14.28,7.89,3,1.86,7.27,2.55,7.51,6.79.18,3.26-1.67,4-4.19,5.06-2,.87-1.76,1.13-1.76,3.53,0,4.85-1.63,6.23-6.41,5.44-1.31-.22-3.31-.78-4.62-.38-1.83.55-1.21,1-1.26,2.53-.13,3.91-4.69,2.81-6.62,1.13C398.67,198.27,395.87,196,392.85,195.73Z" style="fill: rgb(146, 227, 169); transform-origin: 385.869px 152.83px;" id="elurtqg3myijn" class="animable"></path><g id="elex937wv31w"><path d="M392.85,195.73a6.47,6.47,0,0,0-3.52.64,35.65,35.65,0,0,0-5.75,4.07,11.59,11.59,0,0,1-6.37,2.75c-2.35.08-4.89-1.38-5.31-3.7a3.27,3.27,0,0,0-.31-1.17,1.7,1.7,0,0,0-2-.52,10.73,10.73,0,0,0-1.94,1.12c-2.38,1.4-5.36,1.08-8.09.68-2.27-.33-5.14-1.33-5.13-3.63,0-1.5,1.31-2.6,2.34-3.69s1.87-2.84.93-4a2.86,2.86,0,0,0-1.32-.81c-2.84-.92-6.32.31-8.72-1.47a5,5,0,0,1-1.26-6,7.61,7.61,0,0,1,5.12-3.9c1.91-.49,4.33-.71,5-2.55.63-1.61-.62-3.35-2-4.34s-3.11-1.68-4.1-3.1a4.9,4.9,0,0,1-.13-5.09,6.21,6.21,0,0,1,4.28-2.94,9.51,9.51,0,0,0,2.6-.57,1.74,1.74,0,0,0,1-2.19c-.26-.47-.8-.71-1.11-1.15a2.07,2.07,0,0,1,.77-2.7,10.26,10.26,0,0,1,2.9-1.11c2.06-.69,4.06-2.69,3.45-4.77s-3.6-2.88-4.48-5c-.78-1.85.46-4,2.11-5.12s3.67-1.59,5.48-2.44,3.56-2.37,3.7-4.37-1.38-3.76-2.63-5.39-2.31-3.9-1.22-5.63,3.38-1.77,5.26-2.37a8.5,8.5,0,0,0,5.18-4.67c.5-1.15.74-2.42,1.34-3.52,1.86-3.45,6.55-5,10.18-4.53,1.9.22,2.53,1,3.45,2.35a5.46,5.46,0,0,1,1.27,2.38c.27,1.66-.6,3.78,1,5,2.39,1.93,6-.67,5.91,3.64a18.06,18.06,0,0,1-.81,5.37c-.65,1.82-1.95,2.6-.86,4.63,1.4,2.63,2.31,2.61,5.12,2.61,2,0,3.72-.11,5.21,1.43,2.62,2.7,1.06,5.16-1.26,7.24-2.64,2.38-1.24,3.42-.9,6.49.17,1.48-.17,1.94,1.15,2.92,2.51,1.86,3.9,1.23,3.2,4.87-.64,3.32.35,2.18,3.23,3.42,2.55,1.1,4.24,3.85,6.3,5.56,1.33,1.1,3.36,2,3.48,3.89.24,3.71-4.36,2.9-6.55,3.78-3.58,1.45-2.51,6.14.28,7.89,3,1.86,7.27,2.55,7.51,6.79.18,3.26-1.67,4-4.19,5.06-2,.87-1.76,1.13-1.76,3.53,0,4.85-1.63,6.23-6.41,5.44-1.31-.22-3.31-.78-4.62-.38-1.83.55-1.21,1-1.26,2.53-.13,3.91-4.69,2.81-6.62,1.13C398.67,198.27,395.87,196,392.85,195.73Z" style="opacity: 0.15; transform-origin: 385.869px 152.83px;" class="animable"></path></g><g id="elx7x0ktvp1qi"><path d="M356.38,187.47c-2.18-.71-4.74-.15-6.89-.65a25,25,0,0,1,3.86-.61,11,11,0,0,1,8.34,3.3,7.52,7.52,0,0,0-1.68,5c5.42,1.47,10.75-5.8,15.92-3.59-.32,2.62,0,6.15,2.54,6.72,1.5.34,3-.66,3.94-1.89s1.5-2.7,2.44-3.92a8.3,8.3,0,0,1,11-1.6c1.19.86,3.77,2.8,5.13,1.31.49-.54.36-1.26.57-1.9a5.13,5.13,0,0,1,.79-1.24c.65-1,.23-1.92-1-2.39a31.85,31.85,0,0,0-3.41-.53,4,4,0,0,1-2.74-2.16,3.05,3.05,0,0,1,.54-3.36c.43-.43,1-.7,1.44-1.11a1.45,1.45,0,0,0,.48-1.63,1.79,1.79,0,0,0-.67-.64q-2.91-2-5.73-4.13c-1.07-.81-2.21-1.78-2.39-3.11a3.74,3.74,0,0,1,.83-2.63c1.57-2.12,4.51-3.28,5.22-5.83a13.08,13.08,0,0,1,.64-2.73c.66-1.25,2.21-1.67,3.6-1.93a3.4,3.4,0,0,0,2.52-1.28,2.32,2.32,0,0,0,.17-1.64c-.51-2.45-3.11-3.94-4-6.29a6.57,6.57,0,0,1,1.16-6,20.76,20.76,0,0,1,7.92-6.15,20,20,0,0,0,3.63-1.68l.12-.09c-.08,1.52-1.21,2.92-2.62,4.19-2.64,2.38-1.24,3.42-.9,6.49.17,1.48-.17,1.94,1.15,2.92,2.51,1.86,3.9,1.23,3.2,4.87-.64,3.32.35,2.18,3.23,3.42,2.55,1.1,4.24,3.85,6.3,5.56,1.33,1.1,3.36,2,3.48,3.89.24,3.71-4.36,2.9-6.55,3.78-3.58,1.45-2.51,6.14.28,7.89,3,1.86,7.27,2.55,7.51,6.79.18,3.26-1.67,4-4.19,5.06-2,.87-1.76,1.13-1.76,3.53,0,4.85-1.63,6.23-6.41,5.44-1.31-.22-3.31-.78-4.62-.38-1.83.55-1.21,1-1.26,2.53-.13,3.91-4.69,2.81-6.62,1.13-2.22-1.93-5-4.17-8-4.47a6.47,6.47,0,0,0-3.52.64,35.65,35.65,0,0,0-5.75,4.07,11.59,11.59,0,0,1-6.37,2.75c-2.35.08-4.89-1.38-5.31-3.7a3.27,3.27,0,0,0-.31-1.17,1.7,1.7,0,0,0-2-.52,10.73,10.73,0,0,0-1.94,1.12c-2.38,1.4-5.36,1.08-8.09.68-2.27-.33-5.14-1.33-5.13-3.63,0-1.5,1.31-2.6,2.34-3.69s1.87-2.84.93-4A2.86,2.86,0,0,0,356.38,187.47Z" style="opacity: 0.15; transform-origin: 387.626px 168.142px;" class="animable"></path></g><path d="M400.31,155.78l-13.05,25.88V169.75L385.93,119,384,169.75v8l-14.34-25.08L384,183.46v79.76a.8.8,0,0,0,.48.66,2.52,2.52,0,0,0,2.3,0,.8.8,0,0,0,.48-.66v-75Z" style="fill: rgb(55, 71, 79); transform-origin: 384.985px 191.579px;" id="elyxtswg6q90d" class="animable"></path></g><g id="freepik--Bush--inject-68" class="animable" style="transform-origin: 387.86px 252.786px;"><path id="freepik--bush--inject-68" d="M399.73,266.24c-6.38,1-12.1-.74-13.08-7.65a61.36,61.36,0,0,1,0-17.12c.28-2.05,1-4.47,3-5,1.64-.44,3.37.77,4.11,2.31a11.22,11.22,0,0,1,.7,5c1-2.24,2.51-4.83,5-4.88,2.27,0,4,2.33,4.06,4.6s-1,4.4-2.08,6.4c1.72-.23,3.67-.35,5,.78,1.57,1.36,1.39,4,.18,5.67s-3.14,2.66-5,3.58a2.26,2.26,0,0,1,3.05,1.48,3.46,3.46,0,0,1-1.31,3.44A7.51,7.51,0,0,1,399.73,266.24Z" style="fill: rgb(69, 90, 100); transform-origin: 396.811px 251.44px;" class="animable"></path><g id="freepik--bush--inject-68" class="animable" style="transform-origin: 383.129px 256.207px;"><path id="freepik--bush--inject-68" d="M388.66,269l-15.26-8.81a12.23,12.23,0,0,1-3.32-3.12,8.83,8.83,0,0,1-1.86-4,2.09,2.09,0,0,1,.16-1.5c.55-.81,1.86-.53,2.58.13s1.31,1.23,2.08,2a23,23,0,0,1-.29-5.3,2.34,2.34,0,0,1,.64-1.76,2,2,0,0,1,2.13.05c2,1.08,2.85,3.45,3.54,5.62a18.41,18.41,0,0,1,.2-6.74c.53-2.4,3.29-3.34,4.23-1a13.56,13.56,0,0,1,.81,3.84,15.68,15.68,0,0,1-.35,5.07,15.9,15.9,0,0,1,4.07-5.63,2.45,2.45,0,0,1,2.35-.82c1,.37,1.13,1.65,1,2.68a14.56,14.56,0,0,1-2.08,6.14,12.85,12.85,0,0,1,5.16-2,1.53,1.53,0,0,1,1.62.52,2.09,2.09,0,0,1-.35,2.12,12.88,12.88,0,0,1-4.11,3.81,13.2,13.2,0,0,1,5-.52,1.71,1.71,0,0,1,1.34.56c.43.63-.08,1.49-.63,2a14.94,14.94,0,0,1-3.57,2.13,5.26,5.26,0,0,1,2.2.37,1.77,1.77,0,0,1,1,1.81,2.24,2.24,0,0,1-1.61,1.42C392.44,269.11,391.61,269.45,388.66,269Z" style="fill: rgb(146, 227, 169); transform-origin: 383.129px 256.207px;" class="animable"></path><g id="freepik--bush--inject-68"><path d="M388.66,269l-15.26-8.81a12.23,12.23,0,0,1-3.32-3.12,8.83,8.83,0,0,1-1.86-4,2.09,2.09,0,0,1,.16-1.5c.55-.81,1.86-.53,2.58.13s1.31,1.23,2.08,2a23,23,0,0,1-.29-5.3,2.34,2.34,0,0,1,.64-1.76,2,2,0,0,1,2.13.05c2,1.08,2.85,3.45,3.54,5.62a18.41,18.41,0,0,1,.2-6.74c.53-2.4,3.29-3.34,4.23-1a13.56,13.56,0,0,1,.81,3.84,15.68,15.68,0,0,1-.35,5.07,15.9,15.9,0,0,1,4.07-5.63,2.45,2.45,0,0,1,2.35-.82c1,.37,1.13,1.65,1,2.68a14.56,14.56,0,0,1-2.08,6.14,12.85,12.85,0,0,1,5.16-2,1.53,1.53,0,0,1,1.62.52,2.09,2.09,0,0,1-.35,2.12,12.88,12.88,0,0,1-4.11,3.81,13.2,13.2,0,0,1,5-.52,1.71,1.71,0,0,1,1.34.56c.43.63-.08,1.49-.63,2a14.94,14.94,0,0,1-3.57,2.13,5.26,5.26,0,0,1,2.2.37,1.77,1.77,0,0,1,1,1.81,2.24,2.24,0,0,1-1.61,1.42C392.44,269.11,391.61,269.45,388.66,269Z" style="opacity: 0.25; transform-origin: 383.129px 256.207px;" class="animable"></path></g></g></g></g><g id="freepik--tree--inject-68" class="animable" style="transform-origin: 442.583px 186.469px;"><g id="freepik--tree--inject-68" class="animable" style="transform-origin: 442.583px 184.208px;"><path d="M451,183.89a7.77,7.77,0,0,0-4.23.77c-2.54,1.22-4.64,3.17-6.89,4.87s-4.82,3.21-7.64,3.3-5.86-1.66-6.37-4.43a4.19,4.19,0,0,0-.36-1.41,2,2,0,0,0-2.41-.62,12.25,12.25,0,0,0-2.32,1.34c-2.85,1.68-6.42,1.3-9.7.82-2.72-.39-6.16-1.6-6.15-4.35,0-1.8,1.57-3.13,2.81-4.43s2.24-3.4,1.11-4.79a3.32,3.32,0,0,0-1.58-1c-3.41-1.11-7.58.37-10.46-1.76a6,6,0,0,1-1.51-7.21,9.2,9.2,0,0,1,6.14-4.68c2.29-.58,5.2-.85,6.05-3.05.75-1.93-.75-4-2.45-5.21s-3.73-2-4.91-3.72a5.89,5.89,0,0,1-.17-6.09,8.59,8.59,0,0,1,3-2.85c1-.64,2.11-.66,3.09-1.27a2.51,2.51,0,0,0,1.29-2.49,13.89,13.89,0,0,0-.67-1.6,3.32,3.32,0,0,1,1.07-3.38,8,8,0,0,1,3.35-1.63c1.25-.35,3.08-.54,4.16-1.29a3.9,3.9,0,0,0,1.36-4c-.76-2.6-4.31-3.44-5.36-5.94-.94-2.21.54-4.79,2.52-6.14s4.4-1.9,6.57-2.93,4.27-2.83,4.44-5.23-1.66-4.51-3.16-6.46-2.77-4.68-1.46-6.76,4.05-2.11,6.31-2.83a10.24,10.24,0,0,0,6.21-5.6c.6-1.38.89-2.9,1.6-4.22,2.24-4.13,7.86-5.94,12.2-5.43,2.28.27,3,1.14,4.15,2.81.63,1,1.29,1.5,1.52,2.86.32,2-.73,4.53,1.15,6,2.86,2.31,7.23-.8,7.08,4.37a22.33,22.33,0,0,1-1,6.44c-.78,2.17-2.34,3.11-1.05,5.54,1.68,3.16,2.78,3.14,6.14,3.13,2.44,0,4.47-.13,6.26,1.71,3.14,3.25,1.27,6.19-1.52,8.69-3.17,2.85-1.48,4.09-1.07,7.78.19,1.77-.21,2.32,1.38,3.5,3,2.22,4.67,1.47,3.83,5.84-.77,4,.42,2.61,3.87,4.1,3.06,1.31,5.08,4.61,7.56,6.67,1.59,1.32,4,2.34,4.17,4.66.29,4.44-5.23,3.47-7.86,4.53-4.29,1.73-3,7.35.34,9.46,3.54,2.23,8.71,3,9,8.14.22,3.9-2,4.76-5,6.07-2.42,1-2.11,1.34-2.11,4.23,0,5.81-1.95,7.46-7.69,6.51-1.57-.26-4-.92-5.53-.45-2.19.66-1.45,1.2-1.51,3-.16,4.7-5.62,3.37-7.94,1.36C458,186.94,454.62,184.25,451,183.89Z" style="fill: rgb(146, 227, 169); transform-origin: 442.568px 132.47px;" id="elj9fcbmtmale" class="animable"></path><g id="elmxjjhg5vwx"><path d="M451,183.89a7.77,7.77,0,0,0-4.23.77c-2.54,1.22-4.64,3.17-6.89,4.87s-4.82,3.21-7.64,3.3-5.86-1.66-6.37-4.43a4.19,4.19,0,0,0-.36-1.41,2,2,0,0,0-2.41-.62,12.25,12.25,0,0,0-2.32,1.34c-2.85,1.68-6.42,1.3-9.7.82-2.72-.39-6.16-1.6-6.15-4.35,0-1.8,1.57-3.13,2.81-4.43s2.24-3.4,1.11-4.79a3.32,3.32,0,0,0-1.58-1c-3.41-1.11-7.58.37-10.46-1.76a6,6,0,0,1-1.51-7.21,9.2,9.2,0,0,1,6.14-4.68c2.29-.58,5.2-.85,6.05-3.05.75-1.93-.75-4-2.45-5.21s-3.73-2-4.91-3.72a5.89,5.89,0,0,1-.17-6.09,8.59,8.59,0,0,1,3-2.85c1-.64,2.11-.66,3.09-1.27a2.51,2.51,0,0,0,1.29-2.49,13.89,13.89,0,0,0-.67-1.6,3.32,3.32,0,0,1,1.07-3.38,8,8,0,0,1,3.35-1.63c1.25-.35,3.08-.54,4.16-1.29a3.9,3.9,0,0,0,1.36-4c-.76-2.6-4.31-3.44-5.36-5.94-.94-2.21.54-4.79,2.52-6.14s4.4-1.9,6.57-2.93,4.27-2.83,4.44-5.23-1.66-4.51-3.16-6.46-2.77-4.68-1.46-6.76,4.05-2.11,6.31-2.83a10.24,10.24,0,0,0,6.21-5.6c.6-1.38.89-2.9,1.6-4.22,2.24-4.13,7.86-5.94,12.2-5.43,2.28.27,3,1.14,4.15,2.81.63,1,1.29,1.5,1.52,2.86.32,2-.73,4.53,1.15,6,2.86,2.31,7.23-.8,7.08,4.37a22.33,22.33,0,0,1-1,6.44c-.78,2.17-2.34,3.11-1.05,5.54,1.68,3.16,2.78,3.14,6.14,3.13,2.44,0,4.47-.13,6.26,1.71,3.14,3.25,1.27,6.19-1.52,8.69-3.17,2.85-1.48,4.09-1.07,7.78.19,1.77-.21,2.32,1.38,3.5,3,2.22,4.67,1.47,3.83,5.84-.77,4,.42,2.61,3.87,4.1,3.06,1.31,5.08,4.61,7.56,6.67,1.59,1.32,4,2.34,4.17,4.66.29,4.44-5.23,3.47-7.86,4.53-4.29,1.73-3,7.35.34,9.46,3.54,2.23,8.71,3,9,8.14.22,3.9-2,4.76-5,6.07-2.42,1-2.11,1.34-2.11,4.23,0,5.81-1.95,7.46-7.69,6.51-1.57-.26-4-.92-5.53-.45-2.19.66-1.45,1.2-1.51,3-.16,4.7-5.62,3.37-7.94,1.36C458,186.94,454.62,184.25,451,183.89Z" style="fill: rgb(255, 255, 255); opacity: 0.1; transform-origin: 442.568px 132.47px;" class="animable"></path></g><g id="el4192k8l6kxj"><path d="M407.28,174c-2.61-.85-5.68-.18-8.26-.79a31.55,31.55,0,0,1,4.63-.73,13.1,13.1,0,0,1,10,4,9,9,0,0,0-2,6c6.5,1.77,12.89-6.94,19.08-4.3-.37,3.15,0,7.37,3.05,8.07,1.8.4,3.6-.8,4.72-2.27s1.8-3.24,2.93-4.7a9.93,9.93,0,0,1,13.21-1.92c1.67,1.21,3.77,3.05,5.45,1.84s.7-4.84,2.69-5.83c1.32-.66,3.17.38,4.28-.59a3,3,0,0,0,.75-1.62c.79-3.32,1.48-7.16-.61-9.86-1.86-2.4-5.8-3.87-5.38-6.88.37-2.57,3.63-3.35,6.21-3.65s5.84-1.52,5.71-4.11-3.57-3.77-4.08-6.26c-.22-1.07.15-2.26-.34-3.23-.74-1.46-2.83-1.52-4.06-2.61-2.21-1.95-.5-5.6-1.12-8.48-.44-2-2.09-3.63-2.64-5.64-1.09-4,2.56-7.84,6.39-9.47a23.27,23.27,0,0,0,4.35-2l.14-.1c-.09,1.81-1.44,3.5-3.14,5-3.17,2.85-1.48,4.09-1.07,7.78.19,1.77-.21,2.32,1.38,3.5,3,2.22,4.67,1.47,3.83,5.84-.77,4,.42,2.61,3.87,4.1,3.06,1.31,5.08,4.61,7.56,6.67,1.59,1.32,4,2.34,4.17,4.66.29,4.44-5.23,3.47-7.86,4.53-4.29,1.73-3,7.35.34,9.46,3.54,2.23,8.71,3,9,8.14.22,3.9-2,4.76-5,6.07-2.42,1-2.11,1.34-2.11,4.23,0,5.81-1.95,7.46-7.69,6.51-1.57-.26-4-.92-5.53-.45-2.19.66-1.45,1.2-1.51,3-.16,4.7-5.62,3.37-7.94,1.36-2.66-2.31-6-5-9.63-5.36a7.77,7.77,0,0,0-4.23.77c-2.54,1.22-4.64,3.17-6.89,4.87s-4.82,3.21-7.64,3.3-5.86-1.66-6.37-4.43a4.19,4.19,0,0,0-.36-1.41,2,2,0,0,0-2.41-.62,12.25,12.25,0,0,0-2.32,1.34c-2.85,1.68-6.42,1.3-9.7.82-2.72-.39-6.16-1.6-6.15-4.35,0-1.8,1.57-3.13,2.81-4.43s2.24-3.4,1.11-4.79A3.32,3.32,0,0,0,407.28,174Z" style="opacity: 0.15; transform-origin: 444.748px 150.862px;" class="animable"></path></g><path d="M460,136,444.3,167V152.74l-1.59-60.8-2.31,60.8v9.6l-17.2-30.06,17.2,36.9v126a1,1,0,0,0,.57.8,3.05,3.05,0,0,0,2.76,0,1,1,0,0,0,.57-.8V174.93Z" style="fill: rgb(69, 90, 100); transform-origin: 441.6px 194.125px;" id="elly3vjtq98kt" class="animable"></path></g><g id="freepik--bush--inject-68" class="animable" style="transform-origin: 445.673px 284.433px;"><path id="freepik--bush--inject-68" d="M457.54,297.89c-6.39,1-12.11-.74-13.08-7.65a61,61,0,0,1,0-17.12c.29-2.05,1-4.47,3-5,1.65-.43,3.38.78,4.11,2.31a11.08,11.08,0,0,1,.7,5c1-2.24,2.51-4.83,5-4.88,2.27-.05,4,2.33,4.06,4.6s-1,4.4-2.07,6.4c1.71-.23,3.66-.35,5,.78,1.57,1.36,1.39,4,.19,5.67s-3.15,2.66-5,3.58a2.25,2.25,0,0,1,3,1.48,3.45,3.45,0,0,1-1.3,3.44A7.51,7.51,0,0,1,457.54,297.89Z" style="fill: rgb(55, 71, 79); transform-origin: 454.625px 283.091px;" class="animable"></path><g id="freepik--bush--inject-68" class="animable" style="transform-origin: 440.937px 287.836px;"><path id="freepik--bush--inject-68" d="M446.46,300.62l-15.26-8.81a12.21,12.21,0,0,1-3.31-3.12,8.62,8.62,0,0,1-1.86-4,2,2,0,0,1,.16-1.5c.55-.81,1.85-.53,2.58.13a28.36,28.36,0,0,1,2.07,2.05,23,23,0,0,1-.29-5.3,2.38,2.38,0,0,1,.64-1.76,2,2,0,0,1,2.13,0c2,1.08,2.85,3.45,3.54,5.62a18.2,18.2,0,0,1,.21-6.74c.52-2.4,3.28-3.34,4.22-1a13.63,13.63,0,0,1,.81,3.84,15.65,15.65,0,0,1-.34,5.07,15.9,15.9,0,0,1,4.07-5.63,2.44,2.44,0,0,1,2.34-.82c1,.37,1.13,1.65,1,2.68a14.43,14.43,0,0,1-2.08,6.14,12.85,12.85,0,0,1,5.16-2,1.52,1.52,0,0,1,1.62.52,2.09,2.09,0,0,1-.35,2.12,12.84,12.84,0,0,1-4.1,3.81,13.15,13.15,0,0,1,5-.52,1.73,1.73,0,0,1,1.34.56c.43.63-.07,1.49-.63,2a14.94,14.94,0,0,1-3.57,2.13,5.26,5.26,0,0,1,2.2.37,1.75,1.75,0,0,1,1.05,1.81,2.2,2.2,0,0,1-1.61,1.42C450.25,300.76,449.42,301.1,446.46,300.62Z" style="fill: rgb(146, 227, 169); transform-origin: 440.937px 287.836px;" class="animable"></path><g id="freepik--bush--inject-68"><path d="M446.46,300.62l-15.26-8.81a12.21,12.21,0,0,1-3.31-3.12,8.62,8.62,0,0,1-1.86-4,2,2,0,0,1,.16-1.5c.55-.81,1.85-.53,2.58.13a28.36,28.36,0,0,1,2.07,2.05,23,23,0,0,1-.29-5.3,2.38,2.38,0,0,1,.64-1.76,2,2,0,0,1,2.13,0c2,1.08,2.85,3.45,3.54,5.62a18.2,18.2,0,0,1,.21-6.74c.52-2.4,3.28-3.34,4.22-1a13.63,13.63,0,0,1,.81,3.84,15.65,15.65,0,0,1-.34,5.07,15.9,15.9,0,0,1,4.07-5.63,2.44,2.44,0,0,1,2.34-.82c1,.37,1.13,1.65,1,2.68a14.43,14.43,0,0,1-2.08,6.14,12.85,12.85,0,0,1,5.16-2,1.52,1.52,0,0,1,1.62.52,2.09,2.09,0,0,1-.35,2.12,12.84,12.84,0,0,1-4.1,3.81,13.15,13.15,0,0,1,5-.52,1.73,1.73,0,0,1,1.34.56c.43.63-.07,1.49-.63,2a14.94,14.94,0,0,1-3.57,2.13,5.26,5.26,0,0,1,2.2.37,1.75,1.75,0,0,1,1.05,1.81,2.2,2.2,0,0,1-1.61,1.42C450.25,300.76,449.42,301.1,446.46,300.62Z" style="opacity: 0.25; transform-origin: 440.937px 287.836px;" class="animable"></path></g></g></g></g><g id="freepik--tree--inject-68" class="animable" style="transform-origin: 59.0771px 181.706px;"><g id="freepik--tree--inject-68" class="animable" style="transform-origin: 59.0771px 179.461px;"><path d="M50.66,179.11a7.76,7.76,0,0,1,4.23.76c2.53,1.23,4.64,3.18,6.89,4.88s4.82,3.2,7.64,3.3,5.86-1.66,6.37-4.43a4,4,0,0,1,.36-1.42,2.06,2.06,0,0,1,2.4-.62,13.43,13.43,0,0,1,2.32,1.34c2.86,1.69,6.43,1.3,9.71.83,2.72-.4,6.16-1.6,6.15-4.36,0-1.79-1.58-3.12-2.81-4.42s-2.24-3.4-1.11-4.8a3.26,3.26,0,0,1,1.58-1c3.4-1.11,7.57.37,10.45-1.77a6,6,0,0,0,1.51-7.21,9.15,9.15,0,0,0-6.14-4.68c-2.28-.58-5.19-.85-6-3.05-.75-1.93.75-4,2.44-5.2s3.74-2,4.92-3.72a5.89,5.89,0,0,0,.16-6.1A7.41,7.41,0,0,0,96.56,134a11.3,11.3,0,0,1-3.12-.69c-1-.48-1.67-1.69-1.15-2.62.31-.56,1-.85,1.33-1.38.72-1,.1-2.51-.92-3.24a12.19,12.19,0,0,0-3.48-1.33c-2.47-.83-4.87-3.22-4.13-5.72s4.31-3.45,5.36-5.94c.93-2.22-.55-4.79-2.53-6.15S83.53,105,81.36,104s-4.27-2.84-4.45-5.23,1.66-4.52,3.16-6.47,2.78-4.67,1.47-6.75-4.06-2.12-6.31-2.83A10.23,10.23,0,0,1,69,77.08c-.6-1.38-.89-2.89-1.61-4.22-2.23-4.13-7.85-5.93-12.2-5.42-2.27.26-3,1.13-4.14,2.81-.64,1-1.3,1.49-1.52,2.85-.33,2,.72,4.53-1.16,6.05-2.85,2.32-7.23-.8-7.07,4.37a21.89,21.89,0,0,0,1,6.44c.78,2.18,2.34,3.12,1,5.55-1.68,3.15-2.77,3.13-6.14,3.13-2.43,0-4.46-.14-6.25,1.71-3.14,3.24-1.27,6.18,1.51,8.69,3.17,2.84,1.49,4.09,1.08,7.78-.2,1.77.21,2.32-1.38,3.49-3,2.23-4.68,1.48-3.83,5.84.77,4-.42,2.62-3.87,4.1-3.06,1.32-5.08,4.61-7.56,6.67-1.59,1.32-4,2.34-4.17,4.66-.29,4.44,5.23,3.47,7.86,4.53,4.29,1.74,3,7.36-.34,9.46-3.55,2.23-8.72,3.06-9,8.14-.22,3.9,2,4.77,5,6.07,2.42,1,2.11,1.35,2.11,4.23,0,5.82,1.95,7.46,7.68,6.52,1.57-.26,4-.93,5.53-.46,2.2.66,1.46,1.2,1.52,3,.16,4.69,5.62,3.37,7.94,1.36C43.69,182.15,47,179.46,50.66,179.11Z" style="fill: rgb(146, 227, 169); transform-origin: 59.0771px 127.705px;" id="elmgwd0jjoec9" class="animable"></path><g id="elje8ic8iw3ce"><path d="M50.66,179.11a7.76,7.76,0,0,1,4.23.76c2.53,1.23,4.64,3.18,6.89,4.88s4.82,3.2,7.64,3.3,5.86-1.66,6.37-4.43a4,4,0,0,1,.36-1.42,2.06,2.06,0,0,1,2.4-.62,13.43,13.43,0,0,1,2.32,1.34c2.86,1.69,6.43,1.3,9.71.83,2.72-.4,6.16-1.6,6.15-4.36,0-1.79-1.58-3.12-2.81-4.42s-2.24-3.4-1.11-4.8a3.26,3.26,0,0,1,1.58-1c3.4-1.11,7.57.37,10.45-1.77a6,6,0,0,0,1.51-7.21,9.15,9.15,0,0,0-6.14-4.68c-2.28-.58-5.19-.85-6-3.05-.75-1.93.75-4,2.44-5.2s3.74-2,4.92-3.72a5.89,5.89,0,0,0,.16-6.1A7.41,7.41,0,0,0,96.56,134a11.3,11.3,0,0,1-3.12-.69c-1-.48-1.67-1.69-1.15-2.62.31-.56,1-.85,1.33-1.38.72-1,.1-2.51-.92-3.24a12.19,12.19,0,0,0-3.48-1.33c-2.47-.83-4.87-3.22-4.13-5.72s4.31-3.45,5.36-5.94c.93-2.22-.55-4.79-2.53-6.15S83.53,105,81.36,104s-4.27-2.84-4.45-5.23,1.66-4.52,3.16-6.47,2.78-4.67,1.47-6.75-4.06-2.12-6.31-2.83A10.23,10.23,0,0,1,69,77.08c-.6-1.38-.89-2.89-1.61-4.22-2.23-4.13-7.85-5.93-12.2-5.42-2.27.26-3,1.13-4.14,2.81-.64,1-1.3,1.49-1.52,2.85-.33,2,.72,4.53-1.16,6.05-2.85,2.32-7.23-.8-7.07,4.37a21.89,21.89,0,0,0,1,6.44c.78,2.18,2.34,3.12,1,5.55-1.68,3.15-2.77,3.13-6.14,3.13-2.43,0-4.46-.14-6.25,1.71-3.14,3.24-1.27,6.18,1.51,8.69,3.17,2.84,1.49,4.09,1.08,7.78-.2,1.77.21,2.32-1.38,3.49-3,2.23-4.68,1.48-3.83,5.84.77,4-.42,2.62-3.87,4.1-3.06,1.32-5.08,4.61-7.56,6.67-1.59,1.32-4,2.34-4.17,4.66-.29,4.44,5.23,3.47,7.86,4.53,4.29,1.74,3,7.36-.34,9.46-3.55,2.23-8.72,3.06-9,8.14-.22,3.9,2,4.77,5,6.07,2.42,1,2.11,1.35,2.11,4.23,0,5.82,1.95,7.46,7.68,6.52,1.57-.26,4-.93,5.53-.46,2.2.66,1.46,1.2,1.52,3,.16,4.69,5.62,3.37,7.94,1.36C43.69,182.15,47,179.46,50.66,179.11Z" style="fill: rgb(255, 255, 255); opacity: 0.1; transform-origin: 59.0771px 127.705px;" class="animable"></path></g><g id="eloyf5ktaxv6p"><path d="M94.39,169.21c2.61-.86,5.68-.19,8.26-.79a30.27,30.27,0,0,0-4.63-.73,13.12,13.12,0,0,0-10,4,9,9,0,0,1,2,6c-6.49,1.76-12.89-7-19.07-4.3.37,3.14,0,7.37-3,8.06-1.8.4-3.61-.8-4.72-2.27s-1.8-3.23-2.93-4.7a9.94,9.94,0,0,0-13.21-1.92c-1.67,1.21-3.77,3.06-5.45,1.84s-.7-4.84-2.69-5.83c-1.32-.66-3.18.39-4.28-.59a3,3,0,0,1-.76-1.62c-.78-3.32-1.47-7.16.62-9.85,1.86-2.4,5.8-3.88,5.37-6.89-.36-2.57-3.63-3.34-6.2-3.64s-5.84-1.52-5.72-4.11,3.58-3.77,4.09-6.27c.21-1.07-.15-2.25.34-3.23.73-1.46,2.83-1.52,4.06-2.6,2.2-1.95.49-5.6,1.12-8.48.44-2,2.09-3.63,2.63-5.64,1.1-4-2.56-7.84-6.38-9.48a24,24,0,0,1-4.36-2l-.13-.11c.09,1.82,1.44,3.5,3.13,5,3.17,2.84,1.49,4.09,1.08,7.78-.2,1.77.21,2.32-1.38,3.49-3,2.23-4.68,1.48-3.83,5.84.77,4-.42,2.62-3.87,4.1-3.06,1.32-5.08,4.61-7.56,6.67-1.59,1.32-4,2.34-4.17,4.66-.29,4.44,5.23,3.47,7.86,4.53,4.29,1.74,3,7.36-.34,9.46-3.55,2.23-8.72,3.06-9,8.14-.22,3.9,2,4.77,5,6.07,2.42,1,2.11,1.35,2.11,4.23,0,5.82,1.95,7.46,7.68,6.52,1.57-.26,4-.93,5.53-.46,2.2.66,1.46,1.2,1.52,3,.16,4.69,5.62,3.37,7.94,1.36,2.66-2.32,6-5,9.63-5.36a7.76,7.76,0,0,1,4.23.76c2.53,1.23,4.64,3.18,6.89,4.88s4.82,3.2,7.64,3.3,5.86-1.66,6.37-4.43a4,4,0,0,1,.36-1.42,2.06,2.06,0,0,1,2.4-.62,13.43,13.43,0,0,1,2.32,1.34c2.86,1.69,6.43,1.3,9.71.83,2.72-.4,6.16-1.6,6.15-4.36,0-1.79-1.58-3.12-2.81-4.42s-2.24-3.4-1.11-4.8A3.26,3.26,0,0,1,94.39,169.21Z" style="opacity: 0.15; transform-origin: 56.9525px 146.047px;" class="animable"></path></g><path d="M41.72,131.21l15.65,31V148L59,87.16,61.27,148v9.6l17.2-30.06-17.2,36.9v126a1,1,0,0,1-.57.79,3,3,0,0,1-2.76,0,1,1,0,0,1-.57-.79V170.15Z" style="fill: rgb(69, 90, 100); transform-origin: 60.095px 189.363px;" id="eljig2q44d2j9" class="animable"></path></g><g id="freepik--bush--inject-68" class="animable" style="transform-origin: 55.9997px 279.652px;"><path id="freepik--bush--inject-68" d="M44.13,293.11c6.38,1,12.1-.75,13.08-7.65a61.36,61.36,0,0,0,0-17.12c-.29-2.06-1-4.48-3-5-1.65-.44-3.38.77-4.12,2.31a11.19,11.19,0,0,0-.69,5c-1-2.24-2.52-4.82-5-4.88-2.27,0-4,2.34-4.06,4.61s1,4.39,2.07,6.4c-1.72-.24-3.67-.36-5,.78-1.56,1.35-1.39,4-.18,5.66s3.15,2.67,5,3.58a2.26,2.26,0,0,0-3,1.49,3.43,3.43,0,0,0,1.3,3.43A7.53,7.53,0,0,0,44.13,293.11Z" style="fill: rgb(55, 71, 79); transform-origin: 47.0456px 278.309px;" class="animable"></path><g id="freepik--bush--inject-68" class="animable" style="transform-origin: 60.7309px 283.099px;"><path id="freepik--bush--inject-68" d="M55.21,295.83,70.47,287a12.05,12.05,0,0,0,3.31-3.12A8.69,8.69,0,0,0,75.64,280a2,2,0,0,0-.16-1.5c-.55-.81-1.85-.53-2.58.12s-1.31,1.23-2.08,2.06a23,23,0,0,0,.3-5.3,2.37,2.37,0,0,0-.64-1.76,2,2,0,0,0-2.14,0c-2,1.08-2.85,3.46-3.53,5.63a18.19,18.19,0,0,0-.21-6.74c-.53-2.41-3.29-3.35-4.22-1.05a13.22,13.22,0,0,0-.81,3.84,15.67,15.67,0,0,0,.34,5.07,15.94,15.94,0,0,0-4.07-5.64,2.46,2.46,0,0,0-2.34-.82c-1,.37-1.13,1.66-1,2.69a14.51,14.51,0,0,0,2.07,6.14,12.66,12.66,0,0,0-5.16-2,1.56,1.56,0,0,0-1.62.53,2.07,2.07,0,0,0,.36,2.11,12.87,12.87,0,0,0,4.1,3.82,13.38,13.38,0,0,0-5-.53,1.73,1.73,0,0,0-1.34.56c-.44.64.07,1.49.63,2a14.87,14.87,0,0,0,3.56,2.13,5,5,0,0,0-2.2.37,1.77,1.77,0,0,0-1.05,1.81A2.27,2.27,0,0,0,48.45,295C51.42,296,52.25,296.32,55.21,295.83Z" style="fill: rgb(146, 227, 169); transform-origin: 60.7309px 283.099px;" class="animable"></path><g id="freepik--bush--inject-68"><path d="M55.21,295.83,70.47,287a12.05,12.05,0,0,0,3.31-3.12A8.69,8.69,0,0,0,75.64,280a2,2,0,0,0-.16-1.5c-.55-.81-1.85-.53-2.58.12s-1.31,1.23-2.08,2.06a23,23,0,0,0,.3-5.3,2.37,2.37,0,0,0-.64-1.76,2,2,0,0,0-2.14,0c-2,1.08-2.85,3.46-3.53,5.63a18.19,18.19,0,0,0-.21-6.74c-.53-2.41-3.29-3.35-4.22-1.05a13.22,13.22,0,0,0-.81,3.84,15.67,15.67,0,0,0,.34,5.07,15.94,15.94,0,0,0-4.07-5.64,2.46,2.46,0,0,0-2.34-.82c-1,.37-1.13,1.66-1,2.69a14.51,14.51,0,0,0,2.07,6.14,12.66,12.66,0,0,0-5.16-2,1.56,1.56,0,0,0-1.62.53,2.07,2.07,0,0,0,.36,2.11,12.87,12.87,0,0,0,4.1,3.82,13.38,13.38,0,0,0-5-.53,1.73,1.73,0,0,0-1.34.56c-.44.64.07,1.49.63,2a14.87,14.87,0,0,0,3.56,2.13,5,5,0,0,0-2.2.37,1.77,1.77,0,0,0-1.05,1.81A2.27,2.27,0,0,0,48.45,295C51.42,296,52.25,296.32,55.21,295.83Z" style="opacity: 0.25; transform-origin: 60.7309px 283.099px;" class="animable"></path></g></g></g></g></g><g id="freepik--Shadow--inject-68" class="animable" style="transform-origin: 234.73px 386.911px;"><g id="freepik--shadow--inject-68"><path d="M426,396.33l11.11,8.32L393.2,443.83l-68.11,5.61-68.58-11.53-61.12,13.56-42.17-38.35-79.55-8.47L32.35,358.91l48.3-26.05s149-11,149.2-10.49,91.45,42.94,91.45,42.94l80.83,14.2Z" style="opacity: 0.15; transform-origin: 234.73px 386.911px;" class="animable"></path></g></g><g id="freepik--Rocks--inject-68" class="animable" style="transform-origin: 248.49px 313.48px;"><g id="freepik--Boulder--inject-68" class="animable" style="transform-origin: 248.49px 313.48px;"><g id="freepik--Grass--inject-68" class="animable" style="transform-origin: 85.215px 282.215px;"><path d="M93.33,268.81c3,15.54-1,35.31-1,35.31l3.34-1.93C98.07,280.38,93.33,268.81,93.33,268.81Z" style="fill: rgb(146, 227, 169); transform-origin: 94.3391px 286.465px;" id="elbrawfnwnr4" class="animable"></path><g id="el6td21acl7ww"><path d="M93.33,268.81c3,15.54-1,35.31-1,35.31l3.34-1.93C98.07,280.38,93.33,268.81,93.33,268.81Z" style="opacity: 0.15; transform-origin: 94.3391px 286.465px;" class="animable"></path></g><g id="el0g0whzv8n7e"><path d="M94.09,303l0,.17,1.65-.95c2.36-21.81-2.38-33.38-2.38-33.38C96,276.34,95.78,294.5,94.09,303Z" style="opacity: 0.15; transform-origin: 94.8794px 286.005px;" class="animable"></path></g><path d="M92.37,304.12S91,290,85.68,277.88s-12-17.57-12-17.57,8.18,3.72,14.88,16.78a83.73,83.73,0,0,1,8.2,24.5Z" style="fill: rgb(146, 227, 169); transform-origin: 85.22px 282.215px;" id="el0ebcri2uwrc" class="animable"></path><g id="el0yy5xeu3osq"><path d="M92.37,304.12S91,290,85.68,277.88s-12-17.57-12-17.57,8.18,3.72,14.88,16.78a83.73,83.73,0,0,1,8.2,24.5Z" style="opacity: 0.2; transform-origin: 85.22px 282.215px;" class="animable"></path></g><g id="ela68clyh7tyj"><path d="M94.67,302.79h0l2.08-1.2a83.73,83.73,0,0,0-8.2-24.5c-6.7-13.06-14.88-16.78-14.88-16.78C81.65,265.44,92.27,282.26,94.67,302.79Z" style="opacity: 0.1; transform-origin: 85.21px 281.55px;" class="animable"></path></g><path d="M92.37,304.12S90,292.53,75.64,282.88c0,0,13.61,5.24,20.07,19.31Z" style="fill: rgb(146, 227, 169); transform-origin: 85.675px 293.5px;" id="el3w85fteddtf" class="animable"></path><g id="elju8lzx9dcmm"><path d="M94.09,303a.61.61,0,0,1,0,.12l1.57-.9c-6.46-14.07-20.07-19.31-20.07-19.31C82.33,286.74,90.48,293.32,94.09,303Z" style="opacity: 0.1; transform-origin: 85.625px 293.015px;" class="animable"></path></g></g><g id="freepik--grass--inject-68" class="animable" style="transform-origin: 402.5px 347.02px;"><path d="M396,336.23c-2.45,12.53.78,28.46.78,28.46l-2.7-1.55C392.14,345.56,396,336.23,396,336.23Z" style="fill: rgb(146, 227, 169); transform-origin: 395.157px 350.46px;" id="elspnmsnb1vc" class="animable"></path><g id="elhjm2am76hbd"><path d="M396,336.23c-2.45,12.53.78,28.46.78,28.46l-2.7-1.55C392.14,345.56,396,336.23,396,336.23Z" style="opacity: 0.15; transform-origin: 395.157px 350.46px;" class="animable"></path></g><g id="eltxp1z65fjd"><path d="M395.34,363.76l0,.14-1.33-.76c-1.9-17.58,1.92-26.91,1.92-26.91C393.85,342.3,394,356.94,395.34,363.76Z" style="opacity: 0.15; transform-origin: 394.705px 350.065px;" class="animable"></path></g><path d="M396.74,364.69a80.17,80.17,0,0,1,5.39-21.15c4.28-9.79,9.67-14.16,9.67-14.16s-6.59,3-12,13.52a67.6,67.6,0,0,0-6.61,19.75Z" style="fill: rgb(146, 227, 169); transform-origin: 402.495px 347.035px;" id="elxx2fxt4fd3j" class="animable"></path><g id="eltrmqts2hwb"><path d="M396.74,364.69a80.17,80.17,0,0,1,5.39-21.15c4.28-9.79,9.67-14.16,9.67-14.16s-6.59,3-12,13.52a67.6,67.6,0,0,0-6.61,19.75Z" style="opacity: 0.2; transform-origin: 402.495px 347.035px;" class="animable"></path></g><g id="elpk52wxffnm"><path d="M394.88,363.62h0l-1.68-1a67.6,67.6,0,0,1,6.61-19.75c5.4-10.52,12-13.52,12-13.52C405.38,333.51,396.81,347.07,394.88,363.62Z" style="opacity: 0.1; transform-origin: 402.505px 346.485px;" class="animable"></path></g><path d="M396.74,364.69s1.88-9.34,13.47-17.12c0,0-11,4.23-16.17,15.57Z" style="fill: rgb(146, 227, 169); transform-origin: 402.125px 356.13px;" id="el0arbekmvh4ga" class="animable"></path><g id="elpdo5xwven8c"><path d="M395.34,363.76a.3.3,0,0,1,0,.1l-1.26-.72c5.21-11.34,16.17-15.57,16.17-15.57C404.82,350.68,398.26,356,395.34,363.76Z" style="opacity: 0.1; transform-origin: 402.165px 355.715px;" class="animable"></path></g></g><path d="M429.35,385.66l1.42,17-42.35,34.69-60.74,3.29L259.1,428.57l-43.05,13.68S168.28,407,166.86,406.07s-67.07-15.39-67.07-15.39l-35.19-26L84,307.58Z" style="fill: rgb(69, 90, 100); transform-origin: 247.685px 374.915px;" id="el5bffxkeltf5" class="animable"></path><polygon points="259.1 428.57 253.38 400.37 223.92 396.1 216.05 442.25 259.1 428.57" style="fill: rgb(38, 50, 56); transform-origin: 237.575px 419.175px;" id="el1j27t13474cj" class="animable"></polygon><polygon points="216.05 442.25 223.92 396.1 185.82 332.84 166.86 406.06 216.05 442.25" style="fill: rgb(55, 71, 79); transform-origin: 195.39px 387.545px;" id="el1cap0zm7m3f" class="animable"></polygon><polygon points="388.42 437.35 327.68 440.64 324.68 364.69 370.85 375.28 388.42 437.35" style="fill: rgb(55, 71, 79); transform-origin: 356.55px 402.665px;" id="elypwkev6egco" class="animable"></polygon><polygon points="327.68 440.64 257.19 419.18 259.1 428.57 327.68 440.64" style="fill: rgb(55, 71, 79); transform-origin: 292.435px 429.91px;" id="elt2vkw037rh" class="animable"></polygon><polygon points="429.35 385.66 388.42 437.35 430.77 402.67 429.35 385.66" style="fill: rgb(55, 71, 79); transform-origin: 409.595px 411.505px;" id="elyt2b01zpo1o" class="animable"></polygon><polygon points="99.79 390.68 119.56 317.64 143.26 323.07 153.22 402.67 99.79 390.68" style="fill: rgb(55, 71, 79); transform-origin: 126.505px 360.155px;" id="elgy5gizh4xmt" class="animable"></polygon><polygon points="99.79 390.68 119.56 317.64 84 307.58 64.6 364.69 99.79 390.68" style="fill: rgb(38, 50, 56); transform-origin: 92.08px 349.13px;" id="el80v9l81b93f" class="animable"></polygon><path d="M432.38,385.19c-5.24-9.26-9.65-12.62-16.34-17.91,0,0-38.32-11.16-39.47-11.77s-88.18-16.75-88.18-16.75L187.82,289.52H112.76c-15.24,3.71-29.25,11.78-31.56,14.66l-.55,4,8.58,13.94,26.82,10.41,29.29,15.61,32.86,16,44.05,42.51h31l72.89,13.85,59.06-6.58c19.66-8.81,39.95-17.7,46.58-24.74Z" style="fill: rgb(146, 227, 169); transform-origin: 256.515px 355.01px;" id="elxdt9nqg5iag" class="animable"></path><g id="elw94sas2y3z"><path d="M432.38,385.19c-5.24-9.26-9.65-12.62-16.34-17.91,0,0-38.32-11.16-39.47-11.77s-88.18-16.75-88.18-16.75L187.82,289.52H112.76c-15.24,3.71-29.25,11.78-31.56,14.66l-.55,4,8.58,13.94,26.82,10.41,29.29,15.61,32.86,16,44.05,42.51h31l72.89,13.85,59.06-6.58c19.66-8.81,39.95-17.7,46.58-24.74Z" style="opacity: 0.2; transform-origin: 256.515px 355.01px;" class="animable"></path></g><g id="elqovivqbf5"><polygon points="115.58 332.31 116.61 328.53 145.89 344.14 146.52 348.68 115.58 332.31" style="opacity: 0.1; transform-origin: 131.05px 338.605px;" class="animable"></polygon></g><g id="el9nclcphdjg"><polygon points="116.61 328.53 89.78 318.11 81.2 304.18 80.65 308.14 89.22 322.08 115.58 332.31 116.61 328.53" style="opacity: 0.2; transform-origin: 98.63px 318.245px;" class="animable"></polygon></g><g id="eluds98qbmoig"><polygon points="89.22 322.08 89.78 318.11 81.2 304.18 80.65 308.14 89.22 322.08" style="opacity: 0.1; transform-origin: 85.215px 313.13px;" class="animable"></polygon></g><g id="elvgaod1wlgso"><polygon points="178.75 360.15 178.2 364.12 222.25 406.63 222.81 402.67 178.75 360.15" style="opacity: 0.1; transform-origin: 200.505px 383.39px;" class="animable"></polygon></g><g id="eltz9ok94o2t"><polygon points="253.29 406.63 253.85 402.67 222.81 402.67 222.25 406.63 253.29 406.63" style="opacity: 0.2; transform-origin: 238.05px 404.65px;" class="animable"></polygon></g><g id="eln4brz0uy1ma"><polygon points="326.18 420.48 326.73 416.51 385.79 409.93 385.24 413.9 326.18 420.48" style="opacity: 0.2; transform-origin: 355.985px 415.205px;" class="animable"></polygon></g><path d="M112.76,289.52c-15.24,3.71-29.25,11.78-31.56,14.66l8.58,13.93,26.83,10.42,29.28,15.61,32.86,16,44.05,42.51h31l72.88,13.85,59.06-6.58c19.67-8.8,39.95-17.69,46.59-24.74-5.24-9.26-9.65-12.62-16.34-17.91,0,0-38.32-11.16-39.47-11.77s-88.18-16.75-88.18-16.75L187.82,289.52Z" style="fill: rgb(146, 227, 169); transform-origin: 256.765px 353.01px;" id="elpqrn8kc1nb" class="animable"></path><polygon points="410.51 374.6 388.01 390.68 348.76 390.8 300.1 400.37 244.89 387.49 210.95 358.91 257.57 333.71 339.46 265.68 350.24 292.99 363.79 293.5 366.82 315.4 384.74 334.53 388.42 355.51 410.51 374.6" style="fill: rgb(69, 90, 100); transform-origin: 310.73px 333.025px;" id="elm4qy52r505a" class="animable"></polygon><polygon points="339.46 265.68 350.24 292.99 321.69 280.44 339.46 265.68" style="fill: rgb(38, 50, 56); transform-origin: 335.965px 279.335px;" id="elmrg64d4foir" class="animable"></polygon><polygon points="388.01 390.68 388.42 355.51 384.74 334.53 348.76 390.8 388.01 390.68" style="fill: rgb(55, 71, 79); transform-origin: 368.59px 362.665px;" id="elxrijb91bnh" class="animable"></polygon><polygon points="366.82 315.4 366.82 336.23 352.73 357.73 348.76 390.8 338.9 348.05 360.24 332.31 366.82 315.4" style="fill: rgb(55, 71, 79); transform-origin: 352.86px 353.1px;" id="ele1knumu402s" class="animable"></polygon><polygon points="338.9 348.05 321.3 381.73 300.1 400.37 348.76 390.8 338.9 348.05" style="fill: rgb(38, 50, 56); transform-origin: 324.43px 374.21px;" id="elpo0haa6zu4" class="animable"></polygon><polygon points="321.3 381.73 292.44 366.75 244.89 387.49 300.1 400.37 321.3 381.73" style="fill: rgb(55, 71, 79); transform-origin: 283.095px 383.56px;" id="elykj3shivcs" class="animable"></polygon><polygon points="338.9 348.05 348.76 325.49 343.83 314.42 309.07 331.23 321.3 381.73 338.9 348.05" style="fill: rgb(55, 71, 79); transform-origin: 328.915px 348.075px;" id="elw3tdf3o5gea" class="animable"></polygon><polygon points="244.89 387.49 253.85 335.72 210.95 358.91 244.89 387.49" style="fill: rgb(38, 50, 56); transform-origin: 232.4px 361.605px;" id="elem1n883vbfa" class="animable"></polygon><polygon points="292.44 366.75 286.11 333.95 253.85 335.72 244.89 387.49 292.44 366.75" style="fill: rgb(55, 71, 79); transform-origin: 268.665px 360.72px;" id="el7w8l0xkgt44" class="animable"></polygon><polygon points="292.44 366.75 268.66 393.03 244.89 387.49 292.44 366.75" style="fill: rgb(38, 50, 56); transform-origin: 268.665px 379.89px;" id="elfqs245c69dq" class="animable"></polygon><g id="elokcph8it5be"><path d="M197.32,317.64l32.53-4.51.59-2.75-42.62-20.86H112.76A94.38,94.38,0,0,0,101.67,293l-8.34,14.59,68.17,23.64Z" style="opacity: 0.2; transform-origin: 161.885px 310.375px;" class="animable"></path></g><polygon points="119.9 223.78 104.64 303.14 155.37 319.64 195.39 311.82 229.7 333.95 267.64 315.39 313.98 301.29 317.71 273.33 302.65 238.91 289.24 235.87 282.56 208.8 119.9 223.78" style="fill: rgb(69, 90, 100); transform-origin: 211.175px 271.375px;" id="eln2dzvr5zyxe" class="animable"></polygon><polygon points="229.85 313.13 201.06 274.18 198.84 245.53 187.23 285.97 195.39 311.82 229.85 313.13" style="fill: rgb(55, 71, 79); transform-origin: 208.54px 279.33px;" id="elna0kvzuktj" class="animable"></polygon><polygon points="162.76 293.5 155.37 319.64 124.19 309.6 123.08 272.49 136.66 248.1 173.16 266.7 162.76 293.5" style="fill: rgb(55, 71, 79); transform-origin: 148.12px 283.87px;" id="elw07zm1bqajn" class="animable"></polygon><polygon points="104.64 303.14 124.19 309.6 123.08 272.49 136.66 249.47 119.9 223.78 104.64 303.14" style="fill: rgb(38, 50, 56); transform-origin: 120.65px 266.69px;" id="el2ncvnirxrt5" class="animable"></polygon><polygon points="195.39 311.82 187.23 285.97 198.84 245.53 173.16 266.7 162.76 293.5 155.37 319.64 195.39 311.82" style="fill: rgb(38, 50, 56); transform-origin: 177.105px 282.585px;" id="elotzkti2sgp" class="animable"></polygon><polygon points="271.57 255.37 284.13 246.08 289.24 235.87 282.56 208.8 268.66 226.48 271.57 255.37" style="fill: rgb(55, 71, 79); transform-origin: 278.95px 232.085px;" id="el1bxrelygzjp" class="animable"></polygon><polygon points="251.96 292.99 271.57 255.37 268.66 226.48 253.81 235.69 251.96 292.99" style="fill: rgb(38, 50, 56); transform-origin: 261.765px 259.735px;" id="ele2yv0u9ogy" class="animable"></polygon><polygon points="271.57 255.37 278.95 268.88 310.22 256.21 302.65 238.91 271.57 255.37" style="fill: rgb(55, 71, 79); transform-origin: 290.895px 253.895px;" id="elbtf0ae77iac" class="animable"></polygon><polygon points="292.44 281.55 278.95 268.88 310.22 256.21 292.44 281.55" style="fill: rgb(38, 50, 56); transform-origin: 294.585px 268.88px;" id="elt7upq1s4s2n" class="animable"></polygon><g id="freepik--grass--inject-68" class="animable" style="transform-origin: 210.937px 296.09px;"><path d="M203.69,286.3c-1,12.72,4,28.19,4,28.19l-2.85-1.24C201,296,203.69,286.3,203.69,286.3Z" style="fill: rgb(146, 227, 169); transform-origin: 205.232px 300.395px;" id="elkumjmgihedj" class="animable"></path><g id="eldlwhr12qif"><path d="M203.69,286.3c-1,12.72,4,28.19,4,28.19l-2.85-1.24C201,296,203.69,286.3,203.69,286.3Z" style="opacity: 0.15; transform-origin: 205.232px 300.395px;" class="animable"></path></g><g id="elb7wdc5162i"><path d="M206.21,313.72a.74.74,0,0,1,0,.14l-1.4-.61c-3.9-17.25-1.16-26.95-1.16-26.95C202.28,292.57,204.08,307.1,206.21,313.72Z" style="opacity: 0.15; transform-origin: 204.464px 300.08px;" class="animable"></path></g><path d="M207.7,314.49a80.13,80.13,0,0,1,3-21.63c3.13-10.21,8-15.17,8-15.17s-6.2,3.73-10.36,14.8A67.49,67.49,0,0,0,204,312.86Z" style="fill: rgb(146, 227, 169); transform-origin: 211.35px 296.09px;" id="el0ltxcfdz79v" class="animable"></path><g id="elrr4r661rsya"><path d="M207.7,314.49a80.13,80.13,0,0,1,3-21.63c3.13-10.21,8-15.17,8-15.17s-6.2,3.73-10.36,14.8A67.49,67.49,0,0,0,204,312.86Z" style="fill: rgb(255, 255, 255); opacity: 0.5; transform-origin: 211.35px 296.09px;" class="animable"></path></g><g id="elvvm5j2nk8m"><path d="M205.74,313.63h0l-1.78-.77a67.49,67.49,0,0,1,4.32-20.37c4.16-11.07,10.36-14.8,10.36-14.8C212.73,282.53,205.77,297,205.74,313.63Z" style="opacity: 0.1; transform-origin: 211.3px 295.66px;" class="animable"></path></g><path d="M207.7,314.49s.81-9.5,11.44-18.55c0,0-10.41,5.45-14.29,17.31Z" style="fill: rgb(146, 227, 169); transform-origin: 211.995px 305.215px;" id="elt3qyi88har" class="animable"></path><g id="elhlms9gnlhrp"><path d="M206.21,313.72s0,.07,0,.11l-1.34-.58c3.88-11.86,14.29-17.31,14.29-17.31C214.14,299.65,208.22,305.66,206.21,313.72Z" style="opacity: 0.1; transform-origin: 212.015px 304.885px;" class="animable"></path></g></g><path d="M368.59,293.5s-12-10-33.6-15.81l10-6.64-1.1-3.76s-10.11-6.09-33.63-11.08l-17.78,25.34L252,293l-22.11,20.14-34.46-1.31L211,358.91h0l42.86-12.83h35L313.55,349l43.53-27.57,12.61-24.13Z" style="fill: rgb(146, 227, 169); transform-origin: 282.56px 307.56px;" id="el15zuqe87ijq" class="animable"></path><g id="el65pq5s1fe5c"><path d="M368.59,293.5s-12-10-33.6-15.81l10-6.64-1.1-3.76s-10.11-6.09-33.63-11.08l-17.78,25.34L252,293l-22.11,20.14-34.46-1.31,1.93,5.82L211,358.91h0l42.86-12.83h35L313.55,349l43.53-27.57,12.61-24.13Z" style="opacity: 0.2; transform-origin: 282.56px 307.56px;" class="animable"></path></g><g id="elfilodvix0z4"><polygon points="343.85 267.29 344.95 271.05 335 277.69 330.07 276.48 343.85 267.29" style="opacity: 0.2; transform-origin: 337.51px 272.49px;" class="animable"></polygon></g><path d="M330.07,276.48l13.78-9.19s-10.11-6.09-33.63-11.08l-17.78,25.34L252,293l-22.11,20.14-32.53,4.51L211,358.91l41.76-16.59h35l24.72,2.89L356,317.64l12.61-24.14S354.76,281.94,330.07,276.48Z" style="fill: rgb(146, 227, 169); transform-origin: 282.985px 307.56px;" id="ell2vq1h8rt5l" class="animable"></path><g id="elr0hkcycbknm"><polygon points="355.98 317.64 357.08 321.39 313.55 348.96 312.45 345.21 355.98 317.64" style="opacity: 0.2; transform-origin: 334.765px 333.3px;" class="animable"></polygon></g><g id="elw1zxrvgzuh"><polygon points="253.81 346.08 252.71 342.32 210.95 358.91 253.81 346.08" style="opacity: 0.2; transform-origin: 232.38px 350.615px;" class="animable"></polygon></g><path d="M289,207.25s-15.47-9-27.4-13.87l-43.55-8.67-71.56,9.49s-20,12.78-29.91,29.25v4.06l15.16,24.26,41.39,14.93,45.53-16.1L253.21,249,280,234.31v-4.06l-4.93-6.72L289,211.31Z" style="fill: rgb(146, 227, 169); transform-origin: 202.79px 225.705px;" id="elpizg81spyd" class="animable"></path><g id="elwg4ifj5xw3"><path d="M289,207.25s-15.47-9-27.4-13.87l-43.55-8.67-71.56,9.49s-20,12.78-29.91,29.25v4.06l15.16,24.26,41.39,14.93,45.53-16.1L253.21,249,280,234.31v-4.06l-4.93-6.72L289,211.31Z" style="opacity: 0.1; transform-origin: 202.79px 225.705px;" class="animable"></path></g><path d="M116.61,223.45l15.16,24.26,41.39,14.93,45.53-16.1,34.52-1.62L280,230.25l-6.74-9.19L289,207.25s-15.47-9-27.4-13.87l-43.55-8.67-71.56,9.49S126.56,207,116.61,223.45Z" style="fill: rgb(146, 227, 169); transform-origin: 202.805px 223.675px;" id="elss7nis6dxgn" class="animable"></path><g id="elimwlm92ovu8"><path d="M116.61,223.45l15.16,24.26,41.39,14.93,45.53-16.1,34.52-1.62L280,230.25l-6.74-9.19L289,207.25s-15.47-9-27.4-13.87l-43.55-8.67-71.56,9.49S126.56,207,116.61,223.45Z" style="fill: rgb(255, 255, 255); opacity: 0.2; transform-origin: 202.805px 223.675px;" class="animable"></path></g><g id="elt6lfla1bbua"><polygon points="289.03 207.25 273.29 221.06 275.1 223.53 289.03 211.31 289.03 207.25" style="opacity: 0.2; transform-origin: 281.16px 215.39px;" class="animable"></polygon></g><g id="el9vs2v3uoer4"><polygon points="253.21 248.98 253.21 244.92 218.69 246.54 218.69 250.6 253.21 248.98" style="opacity: 0.2; transform-origin: 235.95px 247.76px;" class="animable"></polygon></g><g id="eln28dt34qp0g"><polygon points="218.69 246.54 173.16 262.64 173.16 266.7 218.69 250.6 218.69 246.54" style="opacity: 0.1; transform-origin: 195.925px 256.62px;" class="animable"></polygon></g><g id="elzh4k1634spe"><polygon points="131.77 251.77 131.77 247.71 116.61 223.45 116.61 227.51 131.77 251.77" style="opacity: 0.3; transform-origin: 124.19px 237.61px;" class="animable"></polygon></g><polygon points="306.32 240.82 299.42 235.69 289.24 235.87 284.13 246.08 271.57 255.37 308.12 247.76 306.32 240.82" style="fill: rgb(146, 227, 169); transform-origin: 289.845px 245.53px;" id="elh0z28c7d0rc" class="animable"></polygon><g id="elno44e82txo"><polygon points="306.32 240.82 308.12 247.76 271.57 255.37 294.48 245.78 306.32 240.82" style="opacity: 0.2; transform-origin: 289.845px 248.095px;" class="animable"></polygon></g><polygon points="289.24 235.87 284.13 246.08 271.57 255.37 300.1 245.53 306.32 240.82 299.42 235.69 289.24 235.87" style="fill: rgb(146, 227, 169); transform-origin: 288.945px 245.53px;" id="elk62fzjz21og" class="animable"></polygon><g id="eleo00nle9cyn"><polygon points="289.24 235.87 284.13 246.08 271.57 255.37 300.1 245.53 306.32 240.82 299.42 235.69 289.24 235.87" style="fill: rgb(255, 255, 255); opacity: 0.1; transform-origin: 288.945px 245.53px;" class="animable"></polygon></g></g></g><g id="freepik--Sun--inject-68" class="animable" style="transform-origin: 386.05px 48.7px;"><g id="freepik--sun--inject-68"><circle cx="386.05" cy="48.7" r="15.12" style="fill: rgb(240, 153, 122); transform-origin: 386.05px 48.7px; transform: rotate(-45deg);" class="animable"></circle></g></g><g id="freepik--Clouds--inject-68" class="animable" style="transform-origin: 85.84px 35.7559px;"><g id="freepik--clouds--inject-68" class="animable" style="transform-origin: 85.84px 35.7559px;"><path d="M80.62,27.21,76,29.89c0-.2,0-.41,0-.61V27.94c0-2.4-1.68-3.37-3.76-2.17A7.21,7.21,0,0,0,70,27.92c-.34-3-2.7-4.13-5.57-2.47a12.4,12.4,0,0,0-5.61,9.72v2a5.25,5.25,0,0,0,.48,2.33l-3.86,2.22a4.59,4.59,0,0,0-2.08,3.6c0,1.33.93,1.87,2.08,1.21L80.62,32a4.62,4.62,0,0,0,2.08-3.6C82.7,27.09,81.76,26.55,80.62,27.21Z" style="fill: rgb(235, 235, 235); transform-origin: 68.03px 35.7472px;" id="elvfcd5sk3oui" class="animable"></path><path d="M115,27.9l-2.56,1V23.25c0-4.47-3.57-5.55-7.44-3.31h0a15.49,15.49,0,0,0-7,12.14v.82a3.74,3.74,0,0,0-3.25.5h0a11.13,11.13,0,0,0-5,8.73v.38l-3.57,2.06a7.32,7.32,0,0,0-3.32,5.75c0,2.12,1.48,3,3.32,1.92L115,35.57a7.35,7.35,0,0,0,3.32-5.75C118.3,27.7,116.81,26.84,115,27.9Z" style="fill: rgb(235, 235, 235); transform-origin: 100.59px 35.7559px;" id="elooq0w2j8sd" class="animable"></path></g></g><g id="freepik--Birds--inject-68" class="animable" style="transform-origin: 320.315px 81.683px;"><g id="freepik--birds--inject-68" class="animable" style="transform-origin: 320.315px 81.683px;"><path d="M310.75,74.41a26.24,26.24,0,0,0-31.32-4.8c7.61-2.59,23.73-1,31.32,10.94,7.59-12,23.71-13.53,31.32-10.94A26.24,26.24,0,0,0,310.75,74.41Z" style="fill: rgb(235, 235, 235); transform-origin: 310.75px 73.498px;" id="elma04aphggup" class="animable"></path><path d="M340.2,92.79a17.64,17.64,0,0,0-21-3.22c5.11-1.74,15.93-.68,21,7.35,5.1-8,15.92-9.09,21-7.35A17.63,17.63,0,0,0,340.2,92.79Z" style="fill: rgb(235, 235, 235); transform-origin: 340.2px 92.1889px;" id="el036sarsfspdy" class="animable"></path></g></g><g id="freepik--Character--inject-68" class="animable" style="transform-origin: 232.94px 141.758px;"><g id="freepik--character--inject-68" class="animable" style="transform-origin: 232.94px 141.758px;"><g id="freepik--shadow--inject-68"><ellipse cx="232.94" cy="214.07" rx="38.63" ry="22.3" style="opacity: 0.1; transform-origin: 232.94px 214.07px;" class="animable"></ellipse></g><g id="freepik--Bottom--inject-68" class="animable" style="transform-origin: 232.734px 174.021px;"><path d="M259.81,223.62a4.67,4.67,0,0,1,.06,2.45c-.24.5-1.72,2.12-4.72,2.72s-7.15,0-8.92-.11a85.63,85.63,0,0,0-9.15.81c-2.79.38-4.94-.23-6-1.24a1.86,1.86,0,0,1-.42-1.47,7.18,7.18,0,0,1,.3-2Z" style="fill: rgb(38, 50, 56); transform-origin: 245.323px 226.612px;" id="el51hz90qf4fe" class="animable"></path><path d="M231.44,221.86c-.06.24-.11.47-.15.7a12,12,0,0,0-.26,3.63,3.29,3.29,0,0,0,2.15,1.62,11.08,11.08,0,0,0,6,.12,42.28,42.28,0,0,1,7.07-.44,42.86,42.86,0,0,0,6.19.31,14.7,14.7,0,0,0,4.56-.93c1.22-.52,2.47-1.19,2.77-2.45.36-2.65-.75-3.83-2-4.56s-3-.69-5-.81c-1.73-.12-3-.12-4.53-.24a22,22,0,0,1-3.95-.55c-1.16-.36-2.35-1.84-2.84-1.9,0,0-7.69-.06-8.43,0s-1.1,2.71-1.21,3.28-.1.93-.22,1.36S231.51,221.57,231.44,221.86Z" style="fill: rgb(55, 71, 79); transform-origin: 245.415px 222.31px;" id="el0vl4sttpeih" class="animable"></path><path d="M255.15,227.45c.24-1.91.55-6-3-8.44l-.45,0a8.73,8.73,0,0,1,4.86,0c2.82.75,4.07,3,3.37,5.43C260,224.41,259.34,226.74,255.15,227.45Z" style="fill: rgb(250, 250, 250); transform-origin: 255.91px 223.057px;" id="elkmtzka2zkma" class="animable"></path><path d="M244.88,218.4a6.77,6.77,0,0,1,1.53,3.3c.15.86,1.71,1,1.56.16a9,9,0,0,0-1.35-3.2A2.65,2.65,0,0,0,244.88,218.4Z" style="fill: rgb(250, 250, 250); transform-origin: 246.43px 220.387px;" id="elhmmu1n6nb1q" class="animable"></path><path d="M248.07,218.79a5.62,5.62,0,0,1,1.6,3.13c.16.82,1.45.81,1.36,0a4.73,4.73,0,0,0-1.36-3A1.74,1.74,0,0,0,248.07,218.79Z" style="fill: rgb(250, 250, 250); transform-origin: 249.552px 220.592px;" id="elkhxqynnvmk" class="animable"></path><path d="M224.29,200a9.29,9.29,0,0,1-.61,4.44c-1.05,2.29-3,3.23-4.12,4.07a31.28,31.28,0,0,0-3.42,3.4,20.64,20.64,0,0,1-3.2,3.27,5.78,5.78,0,0,1-5.72.37c-1.34-.68-1.79-1.19-1.55-3.3s7.06-2.34,7.06-2.34Z" style="fill: rgb(38, 50, 56); transform-origin: 214.976px 208.068px;" id="elgu0qrbf4sek" class="animable"></path><path d="M207,206c-.6.17-.82,1.2-1.06,3.27-.18,1.56-1.05,3.81,1.16,5a5.75,5.75,0,0,0,6.09-.77c1.69-1.73,2.85-3.28,5.23-5.37,2.06-1.82,4.1-2.33,5.24-6.17.74-2.48.38-3.55-1.34-4.4-2.37-1.17-6.45,1.78-8.41,2.15C212.25,200,207.61,205.86,207,206Z" style="fill: rgb(55, 71, 79); transform-origin: 214.822px 206.049px;" id="elz45pvqpbttb" class="animable"></path><path d="M213.93,199.7a2,2,0,0,0,.33-.09,6.3,6.3,0,0,1,5.05,3.7c.28.71-.76,1.16-1.32.59a6.8,6.8,0,0,0-5.05-3.68A3,3,0,0,1,213.93,199.7Z" style="fill: rgb(250, 250, 250); transform-origin: 216.148px 201.884px;" id="elzfddc6zff38" class="animable"></path><path d="M212.26,200.76a6.25,6.25,0,0,1,4.68,3.64c.27.71-.77,1.17-1.33.59a6.46,6.46,0,0,0-4.18-3.46Z" style="fill: rgb(250, 250, 250); transform-origin: 214.207px 203.007px;" id="eljs08vejpfqb" class="animable"></path><path d="M222.35,204.76s.15-4.67-6.42-5.81l-.39.18A5.65,5.65,0,0,1,219,197a4.66,4.66,0,0,1,5,1.77C225,200.25,223.56,203.93,222.35,204.76Z" style="fill: rgb(250, 250, 250); transform-origin: 219.938px 200.799px;" id="elh3s6x3ft05m" class="animable"></path><path d="M205.35,180.35c-.07-7.91,1.78-11,1.78-11s-1-31.2-.31-37.16a113.06,113.06,0,0,1,2.19-13s32.47-4.17,33,7.13c.88,20.6,1.57,30.89,1.69,46.81,0,5,.08,13.61-.23,23.27-.26,8-.42,20.88-.42,20.88a9.89,9.89,0,0,1-11,1.6s-3.86-24.78-4.22-30.5a56.08,56.08,0,0,1,.35-10.93l-4.35-21.33-8.24,51.43c-2.6,3.6-9.15,2.22-9.9.57C205.64,208.1,205.41,187.36,205.35,180.35Z" style="fill: rgb(69, 90, 100); transform-origin: 224.529px 169.156px;" id="el15y74819kvl" class="animable"></path><path d="M212,137.27s.65,4.52,7.09,6.44l3,12.41s-.48,14-.48,13.85l2.22-13.87-2.31-13.68S215.1,141.11,212,137.27Z" style="fill: rgb(55, 71, 79); transform-origin: 217.915px 153.621px;" id="elyb3vw6l6xo" class="animable"></path></g><g id="freepik--Top--inject-68" class="animable" style="transform-origin: 227.661px 91.4977px;"><polygon points="228.21 75.72 227.71 85.33 217.19 84.76 217.52 73.44 228.21 75.72" style="fill: rgb(158, 103, 103); transform-origin: 222.7px 79.385px;" id="el14q0ps00pc2" class="animable"></polygon><path d="M206.81,127s-.57,3.51,0,4.31,4.54,3.9,15.74,4.46,19-2,19.67-3.58-.06-4.7-.06-4.7Z" style="fill: rgb(146, 227, 169); transform-origin: 224.53px 131.424px;" id="el5vc4hbqwouc" class="animable"></path><g id="ellot12n42ywm"><path d="M206.81,127s-.57,3.51,0,4.31,4.54,3.9,15.74,4.46,19-2,19.67-3.58-.06-4.7-.06-4.7Z" style="opacity: 0.5; transform-origin: 224.53px 131.424px;" class="animable"></path></g><path d="M212.82,78.42a11,11,0,0,0-11.06,6.76,24.76,24.76,0,0,0-.82,10.6c.61,4.69,1.21,7.86,2.53,14.93.81,4.31,2,6,5.37,5a43.79,43.79,0,0,0,8.36-3.56Z" style="fill: rgb(146, 227, 169); transform-origin: 208.95px 97.1864px;" id="elmrk7zoctye" class="animable"></path><g id="elqtnam8wefyq"><path d="M212.82,78.42a11,11,0,0,0-11.06,6.76,24.76,24.76,0,0,0-.82,10.6c.61,4.69,1.21,7.86,2.53,14.93.81,4.31,2,6,5.37,5a43.79,43.79,0,0,0,8.36-3.56Z" style="opacity: 0.15; transform-origin: 208.95px 97.1864px;" class="animable"></path></g><path d="M204.82,84.4c1.13-2.71,4.91-6.5,9.68-6,1.31.15,2.87.37,2.87.37.42,1.74,5.72,2.82,10.27,1.74,1.37.36,7.09,1.74,8.23,2.12,3.27,1.09,4.78,3.88,5.46,15.73s3.6,29.3,0,31.16c-5.75,3-15.36,2.85-21.69,2.27-5.49-.49-10.06-2-12.47-4.38s-1-6.62-.66-12.58c.25-4.38.25-6.76-1.22-13.59C203.31,91.8,203.48,87.59,204.82,84.4Z" style="fill: rgb(146, 227, 169); transform-origin: 223.45px 105.241px;" id="el3mkcgexb7wz" class="animable"></path><path d="M235.27,82.49c5.26,1.37,7.27,2.52,9.13,7.4,1.44,3.76,7.85,15.23,9.83,22.27.59,2.1.82,4.47-1.61,6.26s-9.51,3.2-9.51,3.2c-.06-2.64-.23-5.23-.45-7.8l-8.25-14.24A17.7,17.7,0,0,1,232,89.37C232.19,86.76,233,84.07,235.27,82.49Z" style="fill: rgb(146, 227, 169); transform-origin: 243.289px 102.055px;" id="elmfsct6jvlkq" class="animable"></path><g id="elt1o6cerc8rs"><path d="M235.27,82.49c5.26,1.37,7.27,2.52,9.13,7.4,1.44,3.76,7.85,15.23,9.83,22.27.59,2.1.82,4.47-1.61,6.26s-9.51,3.2-9.51,3.2c-.06-2.64-.23-5.23-.45-7.8l-8.25-14.24A17.7,17.7,0,0,1,232,89.37C232.19,86.76,233,84.07,235.27,82.49Z" style="opacity: 0.15; transform-origin: 243.289px 102.055px;" class="animable"></path></g><g id="elxl80wl9vxud"><path d="M242.66,113.82c.08.89.14,1.79.2,2.68a6,6,0,0,0,4.24,1A7.46,7.46,0,0,1,242.66,113.82Z" style="opacity: 0.15; transform-origin: 244.88px 115.689px;" class="animable"></path></g><path d="M228,79.75c-1.83,1-6.31.81-8.29.24s-2.37-1.19-2.37-1.19l-.8-.11a3.65,3.65,0,0,0-1.72,2.89c.07,1.78,2.41,4.06,6.43,3.6S228,79.75,228,79.75Z" style="fill: rgb(146, 227, 169); transform-origin: 221.41px 81.965px;" id="elp4ogidebxc" class="animable"></path><g id="el1fqehjy3jcb"><path d="M228,79.75c-1.83,1-6.31.81-8.29.24s-2.37-1.19-2.37-1.19l-.8-.11a3.65,3.65,0,0,0-1.72,2.89c.07,1.78,2.41,4.06,6.43,3.6S228,79.75,228,79.75Z" style="opacity: 0.5; transform-origin: 221.41px 81.965px;" class="animable"></path></g><path d="M233.41,82c-.39-1.16-3.14-1.9-5.38-2.24a13.82,13.82,0,0,1-8,3.34c-4.07.17-5.1-2.11-3.45-4.4l.8.11,0-1a4.59,4.59,0,0,0-3.13.33,13.07,13.07,0,0,0-7,9.53c-1.07,5.81-.59,14,5,17.66,3.47,2.24,12.91-2,14.84-6.56S226,86.06,229.75,82A12.16,12.16,0,0,1,233.41,82Z" style="fill: rgb(146, 227, 169); transform-origin: 220.101px 91.8101px;" id="elaxbzqk6aq4" class="animable"></path><g id="el05blu264v0y9"><path d="M233.41,82c-.39-1.16-3.14-1.9-5.38-2.24a13.82,13.82,0,0,1-8,3.34c-4.07.17-5.1-2.11-3.45-4.4l.8.11,0-1a4.59,4.59,0,0,0-3.13.33,13.07,13.07,0,0,0-7,9.53c-1.07,5.81-.59,14,5,17.66,3.47,2.24,12.91-2,14.84-6.56S226,86.06,229.75,82A12.16,12.16,0,0,1,233.41,82Z" style="opacity: 0.3; transform-origin: 220.101px 91.8101px;" class="animable"></path></g><path d="M230.64,80.33c-2.55-.08-5.12,1.17-6.25,5.44s.33,9.69-3.46,13.35c-4.23,4.07-6.54,3.61-7.81,3.38-.75-.13-4.53-3.46-5.35-8s.51-10,.58-10.26a13.62,13.62,0,0,0-1.08,3.39c-1.07,5.81-.59,14,5,17.66,3.47,2.24,12.91-2,14.84-6.56S226,86.06,229.75,82a12.16,12.16,0,0,1,3.66,0C233.18,81.31,232,80.74,230.64,80.33Z" style="fill: rgb(146, 227, 169); transform-origin: 220.111px 93.1168px;" id="elkps9id9cc69" class="animable"></path><g id="el9bz12aqi1yr"><path d="M230.64,80.33c-2.55-.08-5.12,1.17-6.25,5.44s.33,9.69-3.46,13.35c-4.23,4.07-6.54,3.61-7.81,3.38-.75-.13-4.53-3.46-5.35-8s.51-10,.58-10.26a13.62,13.62,0,0,0-1.08,3.39c-1.07,5.81-.59,14,5,17.66,3.47,2.24,12.91-2,14.84-6.56S226,86.06,229.75,82a12.16,12.16,0,0,1,3.66,0C233.18,81.31,232,80.74,230.64,80.33Z" style="opacity: 0.5; transform-origin: 220.111px 93.1168px;" class="animable"></path></g><path d="M235.28,62.7s2.51,3.81,2.23,4.18-2.13.71-2.13.71Z" style="fill: rgb(135, 76, 76); transform-origin: 236.406px 65.145px;" id="el2taz185khma" class="animable"></path><path d="M228.32,52.18c5.08,1.07,7.1,2.55,7.41,11.22.31,8.43-.75,11.21-1.86,12.34-.74.77-4.89.91-7,.33-2.62-.72-8.54-2.82-11.32-7.06-3.26-5-4.12-11.74-.62-14.51C219.85,50.6,226.26,51.74,228.32,52.18Z" style="fill: rgb(158, 103, 103); transform-origin: 224.23px 64.0534px;" id="eluiyuwl0jcfj" class="animable"></path><path d="M233.87,75.74c-.61.63-3.51.83-5.69.57l0-1.26A12.24,12.24,0,0,0,233.87,75.74Z" style="fill: rgb(135, 76, 76); transform-origin: 231.025px 75.7354px;" id="el8ln477pbmc4" class="animable"></path><path d="M236.41,55.43a5.94,5.94,0,0,1-4.37,1,3.25,3.25,0,0,1-.52,1.92,3.87,3.87,0,0,1-2.2,1.6,7.79,7.79,0,0,1,.87,3.51,2,2,0,0,1-.24,1.1.71.71,0,0,1-1.29,0,9.32,9.32,0,0,0-1.07-1.83,3.47,3.47,0,0,0-2.17-1.22c-3.19-.34-3.58,3.82-2.31,5.55C225.2,69.91,227,68,227,68a10.36,10.36,0,0,1-2.73,7.74,12.56,12.56,0,0,1-6.78-.25c-1.85-3.58-5.44-5.81-7-9.17-3.19-7.1-1-11.64,1.47-13.52.49-3.27,3.07-4.74,6-5.42,4.39-1,8.5,1.6,12.84.63a21.29,21.29,0,0,0,2.12-.56,1.17,1.17,0,0,1,.86-.05,1,1,0,0,1,.41,1,4.41,4.41,0,0,1-1.33,2.21,9.55,9.55,0,0,0,2.84-.16,2.68,2.68,0,0,1,1,0,1.78,1.78,0,0,1,1.13,1.79A4.3,4.3,0,0,1,236.41,55.43Z" style="fill: rgb(38, 50, 56); transform-origin: 223.367px 61.6184px;" id="elmu8pjrxt8vp" class="animable"></path><path d="M211.91,53.89l-3-1.79a1.76,1.76,0,0,1,3,1.79Z" style="fill: rgb(38, 50, 56); transform-origin: 210.485px 52.6552px;" id="elbk85rr1dy5v" class="animable"></path></g></g></g><defs>     <filter id="active" height="200%">         <feMorphology in="SourceAlpha" result="DILATED" operator="dilate" radius="2"></feMorphology>                <feFlood flood-color="#32DFEC" flood-opacity="1" result="PINK"></feFlood>        <feComposite in="PINK" in2="DILATED" operator="in" result="OUTLINE"></feComposite>        <feMerge>            <feMergeNode in="OUTLINE"></feMergeNode>            <feMergeNode in="SourceGraphic"></feMergeNode>        </feMerge>    </filter>    <filter id="hover" height="200%">        <feMorphology in="SourceAlpha" result="DILATED" operator="dilate" radius="2"></feMorphology>                <feFlood flood-color="#ff0000" flood-opacity="0.5" result="PINK"></feFlood>        <feComposite in="PINK" in2="DILATED" operator="in" result="OUTLINE"></feComposite>        <feMerge>            <feMergeNode in="OUTLINE"></feMergeNode>            <feMergeNode in="SourceGraphic"></feMergeNode>        </feMerge>            <feColorMatrix type="matrix" values="0   0   0   0   0                0   1   0   0   0                0   0   0   0   0                0   0   0   1   0 "></feColorMatrix>    </filter></defs></svg>